<svg width="13" height="13" viewBox="0 0 13 13" fill="none" xmlns="http://www.w3.org/2000/svg">
<path fill-rule="evenodd" clip-rule="evenodd" d="M12.3397 6.76606C12.3397 7.16776 12.2988 7.5689 12.2185 7.95991C12.1402 8.34164 12.0241 8.71641 11.8722 9.07467C11.7237 9.42659 11.5395 9.76572 11.3243 10.082C11.1123 10.3963 10.868 10.6911 10.5997 10.9599C10.3309 11.2275 10.035 11.471 9.72091 11.6839C9.40361 11.8976 9.06399 12.0816 8.71186 12.2307C8.35309 12.3819 7.97745 12.4978 7.59605 12.5759C7.20452 12.6565 6.80192 12.6976 6.39964 12.6976C5.99706 12.6976 5.59448 12.6565 5.2035 12.5759C4.82152 12.4978 4.44591 12.3819 4.08741 12.2307C3.73531 12.0816 3.39536 11.8976 3.07806 11.6839C2.76395 11.471 2.4681 11.2275 2.19981 10.9599C1.93124 10.6911 1.68701 10.3963 1.4747 10.082C1.26064 9.76572 1.07616 9.42657 0.927092 9.07467C0.77509 8.71641 0.658799 8.34162 0.580194 7.95991C0.500729 7.5689 0.460114 7.16776 0.460114 6.76606C0.460114 6.36406 0.500706 5.96207 0.580218 5.57191C0.658822 5.19018 0.775114 4.81483 0.927115 4.45715C1.07619 4.10497 1.26067 3.76554 1.47472 3.44925C1.68703 3.13473 1.93126 2.84045 2.19983 2.57139C2.46813 2.30376 2.76397 2.06079 3.07809 1.8482C3.39539 1.63358 3.73533 1.44969 4.08744 1.30023C4.44594 1.14872 4.82152 1.0326 5.20353 0.954991C5.5945 0.87506 5.99708 0.834503 6.39966 0.834503C6.80194 0.834503 7.20452 0.87506 7.59608 0.954991C7.97748 1.03262 8.35309 1.14875 8.71189 1.30023C9.06399 1.44966 9.40364 1.63358 9.72094 1.8482C10.0351 2.06079 10.3309 2.30376 10.5998 2.57139C10.8681 2.84045 11.1123 3.13473 11.3243 3.44925C11.5395 3.76554 11.7237 4.105 11.8722 4.45715C12.0241 4.81483 12.1402 5.19018 12.2185 5.57191C12.2988 5.96207 12.3397 6.36406 12.3397 6.76606ZM4.23531 2.18445C2.82075 2.85147 1.76499 4.15304 1.43578 5.72166C1.56951 5.72282 3.68335 5.74947 6.11884 5.1033C5.24089 3.54568 4.30289 2.27455 4.23531 2.18445ZM6.53911 5.88329C3.92728 6.66409 1.42099 6.60791 1.33109 6.60445C1.32963 6.65889 1.32702 6.71159 1.32702 6.76606C1.32702 8.06733 1.81864 9.25363 2.62671 10.1506C2.62496 10.148 4.01314 7.6888 6.75056 6.80487C6.81668 6.78286 6.88399 6.76315 6.95069 6.74405C6.82338 6.45618 6.68442 6.1677 6.53911 5.88329ZM9.74963 2.96442C8.85657 2.17807 7.68394 1.70108 6.39962 1.70108C5.98746 1.70108 5.58749 1.7509 5.20435 1.843C5.28032 1.94496 6.23314 3.20714 7.10065 4.79774C9.01466 4.08122 9.73715 2.98295 9.74963 2.96442ZM7.29646 7.58338C7.28516 7.58712 7.27386 7.59035 7.26282 7.59438C4.2699 8.63625 3.29253 10.7359 3.28195 10.7588C4.14311 11.4276 5.22324 11.831 6.39966 11.831C7.10212 11.831 7.77125 11.6882 8.38005 11.4296C8.30493 10.9871 8.01025 9.43583 7.29646 7.58338ZM9.23422 10.9668C10.3732 10.1993 11.1821 8.98055 11.4078 7.56887C11.3034 7.53528 9.88419 7.08664 8.24689 7.34877C8.91225 9.17459 9.18259 10.6615 9.23422 10.9668ZM7.49109 5.55252C7.60882 5.79407 7.72283 6.03992 7.82811 6.28701C7.86554 6.37564 7.90208 6.46254 7.93775 6.54941C9.68033 6.33044 11.3971 6.69885 11.4705 6.71389C11.4589 5.51312 11.0287 4.41108 10.317 3.54831C10.3074 3.56189 9.49385 4.73575 7.49109 5.55252Z" fill="white"/>
</svg>
