<svg width="12" height="13" viewBox="0 0 12 13" fill="none" xmlns="http://www.w3.org/2000/svg">
<path fill-rule="evenodd" clip-rule="evenodd" d="M5.98912 0.834503C4.37595 0.834503 4.1735 0.841557 3.53992 0.87039C2.90757 0.899347 2.47594 0.999458 2.09826 1.14635C1.7076 1.29806 1.3762 1.501 1.04604 1.83129C0.71564 2.16144 0.512695 2.49284 0.360486 2.88338C0.213227 3.26118 0.112992 3.69293 0.08453 4.32503C0.0561919 4.95862 0.0487671 5.16119 0.0487671 6.77436C0.0487671 8.38752 0.0559444 8.58935 0.0846537 9.22294C0.113734 9.85529 0.213846 10.2869 0.360609 10.6646C0.512447 11.0553 0.715392 11.3867 1.04567 11.7168C1.37571 12.0472 1.7071 12.2507 2.09752 12.4024C2.47545 12.5493 2.9072 12.6494 3.53942 12.6783C4.17301 12.7072 4.37533 12.7142 5.98838 12.7142C7.60166 12.7142 7.8035 12.7072 8.43708 12.6783C9.06943 12.6494 9.50155 12.5493 9.87947 12.4024C10.27 12.2507 10.6009 12.0472 10.931 11.7168C11.2614 11.3867 11.4643 11.0553 11.6165 10.6647C11.7625 10.2869 11.8628 9.85516 11.8925 9.22306C11.9209 8.58948 11.9284 8.38752 11.9284 6.77436C11.9284 5.16119 11.9209 4.95874 11.8925 4.32516C11.8628 3.69281 11.7625 3.26118 11.6165 2.88351C11.4643 2.49284 11.2614 2.16144 10.931 1.83129C10.6005 1.50088 10.2701 1.29794 9.8791 1.14635C9.50044 0.999458 9.06856 0.899347 8.43621 0.87039C7.80263 0.841557 7.60092 0.834503 5.98726 0.834503H5.98912ZM5.45624 1.9049C5.61439 1.90465 5.79085 1.9049 5.98909 1.9049C7.57503 1.9049 7.763 1.91059 8.38929 1.93905C8.96842 1.96553 9.28274 2.0623 9.49212 2.14361C9.76931 2.25127 9.96694 2.37996 10.1747 2.58786C10.3826 2.79575 10.5113 2.99375 10.6192 3.27094C10.7005 3.48007 10.7974 3.79439 10.8238 4.37353C10.8522 4.99969 10.8584 5.18778 10.8584 6.77298C10.8584 8.35818 10.8522 8.54627 10.8238 9.17243C10.7973 9.75157 10.7005 10.0659 10.6192 10.275C10.5115 10.5522 10.3826 10.7496 10.1747 10.9574C9.96681 11.1653 9.76944 11.294 9.49212 11.4016C9.28299 11.4833 8.96842 11.5798 8.38929 11.6063C7.76313 11.6348 7.57503 11.6409 5.98909 11.6409C4.40303 11.6409 4.21505 11.6348 3.5889 11.6063C3.00976 11.5796 2.69544 11.4828 2.48594 11.4015C2.20875 11.2938 2.01075 11.1651 1.80286 10.9572C1.59496 10.7493 1.46626 10.5518 1.35836 10.2745C1.27705 10.0654 1.18016 9.75108 1.1538 9.17194C1.12534 8.54578 1.11965 8.35768 1.11965 6.7715C1.11965 5.18531 1.12534 4.9982 1.1538 4.37204C1.18028 3.79291 1.27705 3.47859 1.35836 3.26921C1.46602 2.99202 1.59496 2.79402 1.80286 2.58612C2.01075 2.37823 2.20875 2.24953 2.48594 2.14163C2.69532 2.05995 3.00976 1.96343 3.5889 1.93682C4.13685 1.91208 4.3492 1.90465 5.45624 1.90341V1.9049ZM9.15974 2.89116C8.76622 2.89116 8.44696 3.21006 8.44696 3.6037C8.44696 3.99721 8.76622 4.31648 9.15974 4.31648C9.55326 4.31648 9.87252 3.99721 9.87252 3.6037C9.87252 3.21018 9.55326 2.89116 9.15974 2.89116ZM5.98913 3.72398C4.30456 3.72398 2.93876 5.08977 2.93876 6.77434C2.93876 8.45891 4.30456 9.82409 5.98913 9.82409C7.67369 9.82409 9.03899 8.45891 9.03899 6.77434C9.03899 5.08977 7.67369 3.72398 5.98913 3.72398ZM5.9891 4.79439C7.08253 4.79439 7.96906 5.68079 7.96906 6.77434C7.96906 7.86777 7.08253 8.75429 5.9891 8.75429C4.89555 8.75429 4.00915 7.86777 4.00915 6.77434C4.00915 5.68079 4.89555 4.79439 5.9891 4.79439Z" fill="white"/>
</svg>
