<svg width="34" height="35" viewBox="0 0 34 35" fill="none" xmlns="http://www.w3.org/2000/svg">
<rect x="-0.0072937" y="0.919434" width="33.4113" height="33.4113" rx="5.56856" fill="#F5F7FA"/>
<g clip-path="url(#clip0_211_2521)">
<path d="M30.6174 10.2548C30.6174 10.2783 30.6174 10.3077 30.6112 10.3254C30.5806 10.5549 30.5806 10.7843 30.5989 11.0197C30.6112 11.0785 30.6235 11.1374 30.6725 11.1845C30.7522 11.2727 30.8748 11.2551 30.9239 11.1492C30.9484 11.0962 30.9484 11.0432 30.9361 10.9903C30.8748 10.7667 30.8626 10.5313 30.8565 10.3018C30.8565 10.2901 30.8565 10.2724 30.8565 10.2548C30.9239 10.2489 30.9852 10.243 31.0404 10.243C31.0833 10.2371 31.1201 10.2312 31.1507 10.2136C31.2427 10.1665 31.2427 10.0665 31.1446 10.0194C31.1078 10.0017 31.0588 9.99585 31.0159 9.99585C30.8626 10.0017 30.7093 10.0017 30.556 10.0017C30.5009 10.0017 30.4457 10.0076 30.3905 10.0135C30.3598 10.0194 30.3231 10.0194 30.2986 10.037C30.2556 10.0547 30.2311 10.0841 30.2311 10.1253C30.2372 10.1665 30.2556 10.19 30.2986 10.2077C30.3231 10.2253 30.3537 10.2312 30.3844 10.2312C30.4579 10.2371 30.5377 10.2489 30.6174 10.2548ZM32.3033 10.5254C32.3033 10.5313 32.3094 10.5372 32.3094 10.5372C32.334 10.6961 32.3585 10.8491 32.3769 11.002C32.383 11.055 32.3892 11.1021 32.4259 11.1433C32.5056 11.2433 32.6283 11.2315 32.6834 11.1256C32.708 11.0727 32.7141 11.0197 32.7018 10.9609C32.665 10.7843 32.6466 10.6078 32.6099 10.4372C32.5853 10.3312 32.5547 10.2312 32.524 10.1371C32.5056 10.0782 32.4627 10.037 32.3892 10.0312C32.3156 10.0194 32.2604 10.0547 32.2297 10.1077C32.193 10.1547 32.1623 10.2018 32.1378 10.2548C32.0949 10.3489 32.0581 10.4431 32.0091 10.5313C32.0029 10.5549 31.9968 10.5725 31.9845 10.5902C31.9784 10.5784 31.9723 10.5725 31.9723 10.5725C31.8925 10.4254 31.819 10.2783 31.7393 10.1371C31.727 10.1253 31.7209 10.1135 31.7148 10.1018C31.678 10.0488 31.6351 10.0194 31.5676 10.0194C31.5063 10.0253 31.4572 10.0606 31.4266 10.1135C31.4143 10.1371 31.4143 10.1547 31.4082 10.1783C31.3837 10.3666 31.353 10.5549 31.3285 10.7431C31.3162 10.8491 31.3101 10.955 31.3101 11.0609C31.304 11.0844 31.3101 11.1138 31.3224 11.1374C31.3347 11.1845 31.3714 11.2139 31.4205 11.2198C31.4818 11.2257 31.5247 11.208 31.5431 11.1609C31.5615 11.1256 31.5676 11.0962 31.5738 11.0668C31.5983 10.9609 31.6167 10.8608 31.6351 10.7608C31.6473 10.702 31.6534 10.6549 31.6719 10.5902C31.6841 10.6137 31.6963 10.6313 31.7086 10.649C31.7638 10.7196 31.819 10.7902 31.8864 10.8491C31.9539 10.8961 32.0091 10.8903 32.0642 10.8373C32.0765 10.8255 32.0826 10.8196 32.0949 10.8079C32.1501 10.7255 32.2175 10.6431 32.2727 10.5607C32.2849 10.549 32.2911 10.5372 32.3033 10.5254Z" fill="#3A3B7B"/>
<path d="M18.1771 10.3703C18.1345 10.4821 18.1264 10.5627 18.1461 10.6297C18.1678 10.7207 18.2242 10.7505 18.3008 10.7274C19.0209 10.5565 20.5999 11.0416 21.1846 11.1768C21.3224 11.2052 21.4346 11.0343 21.3405 10.8812C21.2032 10.7329 19.6248 10.0978 19.0226 10.0632C18.7865 10.0504 18.3645 9.99231 18.1771 10.3703Z" fill="#3A3B7B"/>
<path d="M24.3484 8.31467C24.4252 8.35718 24.4681 8.39774 24.4892 8.44305C24.5208 8.50249 24.5042 8.54361 24.4512 8.5646C23.9751 8.78757 23.3417 9.74751 23.086 10.0786C23.0241 10.1547 22.8811 10.1105 22.8595 9.98524C22.864 9.84363 23.4254 8.80188 23.7388 8.51814C23.862 8.40736 24.0654 8.19 24.3484 8.31467Z" fill="#3A3B7B"/>
<path d="M20.5577 7.84216C20.6499 7.77546 20.7457 7.75209 20.7947 7.79544C21.5128 8.38494 21.8937 9.31846 22.1295 10.1731C22.1384 10.193 22.139 10.2216 22.1319 10.2514C22.1289 10.2768 22.1095 10.3038 22.0787 10.3246C22.0458 10.3476 22.0175 10.3546 22.0042 10.3348C21.6894 9.92385 19.8916 8.32508 20.5577 7.84216Z" fill="#3A3B7B"/>
<path d="M5.34913 18.0625C5.52126 17.9395 5.70839 17.8371 5.90641 17.7577C6.11359 17.7008 6.33442 17.7102 6.53553 17.7846C6.73658 17.8589 6.90703 17.994 7.02097 18.1695C7.12291 18.3446 7.16277 18.5467 7.13464 18.7455C7.1065 18.9442 7.01186 19.1287 6.86492 19.2714C6.75103 19.387 6.62171 19.4877 6.48042 19.5709C5.8507 19.9614 5.21537 20.3304 4.58007 20.7209C4.45008 20.8186 4.31217 20.9062 4.16768 20.9829C3.94789 21.0881 3.69671 21.1163 3.45757 21.0626C3.21843 21.0089 3.00637 20.8767 2.85806 20.6888C2.74719 20.5557 2.65362 20.4103 2.57941 20.2555C1.97755 19.0414 1.35339 17.8326 0.773811 16.597C0.506313 16.0621 0.288972 15.447 0.0772042 14.8533C-0.0144166 14.6808 -0.032308 14.4808 0.0273395 14.2959C0.086987 14.1109 0.219467 13.9556 0.3966 13.8629C0.573734 13.7702 0.781541 13.7475 0.975833 13.7997C1.17012 13.8518 1.33557 13.9746 1.43698 14.142C1.74868 14.5395 2.02461 14.9618 2.26176 15.4043C2.86363 16.474 3.43764 17.5437 4.01721 18.5814C4.05096 18.6387 4.08817 18.694 4.12867 18.7472C4.5649 18.5711 4.97519 18.341 5.34913 18.0625Z" fill="#3A3B7B"/>
<path d="M11.5721 17.6893C10.1956 19.2351 7.88843 18.8446 6.72929 16.8549C5.90449 15.4429 5.7596 13.1108 7.55408 11.6399C7.93727 11.332 8.39547 11.1222 8.88597 11.0302C9.48737 10.9474 10.1006 11.0493 10.6381 11.3211C11.1756 11.593 11.6097 12.021 11.8786 12.5439C12.8594 14.2555 12.7201 16.4377 11.5721 17.6893ZM11.0148 14.0843C10.8686 13.6637 10.5752 13.3046 10.1844 13.068C9.96333 12.9168 9.69464 12.8432 9.42367 12.8598C9.15264 12.8763 8.89588 12.982 8.6965 13.159C7.8996 13.8383 7.73238 15.4482 8.31196 16.4056C8.38585 16.5618 8.49432 16.7005 8.6299 16.8122C8.76548 16.9238 8.92485 17.0057 9.09684 17.0521C9.26883 17.0984 9.44928 17.1082 9.62561 17.0806C9.80195 17.053 9.96983 16.9887 10.1176 16.8924C10.5496 16.5709 10.8665 16.1283 11.0243 15.626C11.1821 15.1237 11.173 14.5867 10.9981 14.0897L11.0148 14.0843Z" fill="#3A3B7B"/>
<path d="M17.1895 14.7583C17.0486 14.7874 16.903 14.7891 16.7613 14.7634C16.6197 14.7376 16.4848 14.685 16.3647 14.6085C16.2596 14.5508 16.1691 14.4715 16.0998 14.3762C16.0305 14.2809 15.984 14.1721 15.9638 14.0575C15.9435 13.943 15.95 13.8255 15.9827 13.7136C16.0154 13.6017 16.0736 13.4982 16.153 13.4104C16.2913 13.2341 16.4877 13.1078 16.7102 13.0521C17.2913 12.8902 17.8895 12.7915 18.4936 12.7579C18.6263 12.7431 18.7607 12.7539 18.889 12.7896C19.0174 12.8254 19.1369 12.8853 19.2408 12.9661C19.3446 13.0468 19.4306 13.1466 19.4937 13.2597C19.5567 13.3727 19.5956 13.4967 19.6081 13.6244C19.7823 14.2515 19.8013 14.9091 19.6638 15.5446C19.1623 17.5985 17.4347 18.3045 15.4953 17.6466C14.951 17.4707 14.4736 17.1429 14.1244 16.7052C13.6587 16.1781 13.3284 15.5534 13.1603 14.8813C13.0241 14.2829 13.039 13.6619 13.2039 13.0701C13.3687 12.4783 13.6786 11.933 14.1077 11.4795C14.515 10.9867 15.0435 10.5989 15.6458 10.351C16.0264 10.1496 16.4718 10.0924 16.8942 10.1905C16.99 10.216 17.0769 10.2656 17.1461 10.3341C17.2152 10.4027 17.2639 10.4878 17.2873 10.5806C17.3106 10.6734 17.3076 10.7704 17.2787 10.8617C17.2497 10.953 17.1958 11.0352 17.1226 11.0998C16.9835 11.2207 16.8323 11.3282 16.6712 11.4207C16.1758 11.7235 15.7446 12.1137 15.4006 12.5707C15.1751 12.8664 15.0198 13.2059 14.9457 13.5653C14.8715 13.9248 14.8803 14.2955 14.9715 14.6513C15.0979 15.1365 15.3784 15.5721 15.774 15.8976C17 16.9673 18.5939 15.935 18.3152 14.4748C17.9084 14.5711 17.5517 14.6727 17.1895 14.7583Z" fill="#3A3B7B"/>
<path d="M24.6795 17.775C22.8684 18.8448 20.8064 17.775 20.355 15.5286C20.0262 13.924 20.6504 11.6775 22.8349 10.8218C23.2997 10.6436 23.8039 10.581 24.3006 10.6399C24.8974 10.7447 25.4448 11.0267 25.8657 11.4461C26.2866 11.8654 26.5599 12.401 26.6467 12.9773C27.0146 14.8867 26.1786 16.9246 24.6795 17.775ZM25.3093 14.1754C25.3087 13.731 25.145 13.3011 24.8467 12.9612C24.6873 12.751 24.4569 12.6004 24.1947 12.535C23.9325 12.4697 23.6548 12.4936 23.4089 12.6029C22.4281 13.0094 21.7371 14.4856 21.9879 15.5714C22.007 15.7418 22.0647 15.9061 22.1569 16.0529C22.2491 16.1997 22.3736 16.3253 22.5217 16.4211C22.6698 16.5169 22.8379 16.5804 23.0142 16.6074C23.1906 16.6343 23.371 16.6239 23.5427 16.577C24.0611 16.4031 24.51 16.0783 24.8267 15.6477C25.1434 15.2171 25.3121 14.7024 25.3093 14.1754Z" fill="#3A3B7B"/>
<path d="M28.4783 18.2243C28.451 18.4201 28.3438 18.5974 28.1802 18.7173C28.0166 18.8371 27.8101 18.8897 27.6062 18.8635C27.4022 18.8372 27.2175 18.7343 27.0926 18.5773C26.9677 18.4204 26.9129 18.2222 26.9402 18.0264C26.9676 17.8306 27.0748 17.6533 27.2384 17.5335C27.402 17.4136 27.6084 17.361 27.8124 17.3872C28.0163 17.4135 28.2011 17.5164 28.326 17.6734C28.4509 17.8304 28.5057 18.0286 28.4783 18.2243ZM27.9935 11.0089C28.0995 10.8535 28.255 10.7352 28.4368 10.6716C28.6185 10.608 28.8169 10.6025 29.0022 10.6559C29.1906 10.7011 29.357 10.8071 29.4737 10.9561C29.5904 11.1051 29.6501 11.288 29.6431 11.4742C29.6185 11.773 29.572 12.0697 29.5038 12.3621C29.3199 13.3516 29.1415 14.3411 28.9465 15.32C28.8573 15.7104 28.7403 16.0848 28.6121 16.4806C28.5675 16.6043 28.493 16.7162 28.3948 16.8069C28.3337 16.8752 28.2557 16.9275 28.1679 16.9591C28.0801 16.9908 27.9855 17.0006 27.8927 16.9878C27.8 16.975 27.712 16.94 27.6371 16.8859C27.5622 16.8319 27.5027 16.7605 27.4641 16.6785C27.3978 16.5314 27.3619 16.3734 27.3582 16.2132C27.3582 15.55 27.3582 14.8814 27.4028 14.2128C27.4786 13.2586 27.6275 12.3111 27.8486 11.378C27.8746 11.253 27.9237 11.1334 27.9935 11.025V11.0089Z" fill="#3A3B7B"/>
<path fill-rule="evenodd" clip-rule="evenodd" d="M2.9946 22.5224C2.9288 22.6634 2.91076 22.8205 2.94291 22.9718C2.9643 23.1712 3.01129 23.3673 3.08279 23.5557C3.17207 23.7864 3.27197 24.0145 3.39514 24.2956C3.42347 24.3603 3.45307 24.4278 3.48405 24.4989C3.65016 24.8797 3.85858 25.3665 4.13659 26.071C4.21528 26.2711 4.28516 26.4728 4.35552 26.676C4.38395 26.7581 4.41248 26.8404 4.44168 26.9229C4.54635 27.2164 4.72645 27.48 4.96518 27.6889C5.06655 27.8037 5.20101 27.8874 5.35178 27.9293C5.50549 27.9719 5.66898 27.9692 5.82106 27.9215C5.97314 27.8737 6.10671 27.7832 6.20443 27.6616C6.30024 27.5423 6.35721 27.3986 6.36829 27.2485C6.43045 26.9561 6.40923 26.6529 6.30678 26.371C6.14419 25.9029 5.95897 25.4341 5.74539 24.9756L5.74441 24.9736C5.39305 24.2563 5.03589 23.5439 4.66183 22.8312L4.65903 22.8262C4.54953 22.6406 4.40722 22.4746 4.23851 22.3358C4.12898 22.2118 3.97789 22.1283 3.81104 22.0994C3.64064 22.07 3.46489 22.0997 3.31518 22.1831C3.17355 22.2608 3.06128 22.3795 2.9946 22.5224Z" fill="#3A3B7B"/>
<path fill-rule="evenodd" clip-rule="evenodd" d="M8.36115 20.7561C7.81023 20.6191 7.23486 20.5992 6.67515 20.6976C6.24162 20.7386 5.81525 20.8345 5.51918 21.0247C5.36859 21.1214 5.24685 21.2457 5.17912 21.4036C5.11103 21.5623 5.10234 21.7439 5.15814 21.9462C5.26003 22.3168 5.39233 22.6772 5.52418 23.0363L5.54554 23.0945L5.54605 23.0958C5.94303 24.1392 6.34379 25.1791 6.7482 26.2155C6.79535 26.3788 6.86204 26.5363 6.94692 26.6849L6.94851 26.6877C7.06063 26.8723 7.20443 27.0374 7.37385 27.1761C7.45858 27.2523 7.56337 27.3051 7.67698 27.3287C7.79172 27.3524 7.91104 27.3455 8.02194 27.3087C8.13289 27.2718 8.23113 27.2064 8.306 27.1196C8.37966 27.0343 8.42789 26.9314 8.4456 26.822C8.5187 26.5246 8.49528 26.2128 8.37844 25.9286C8.34199 25.8329 8.31339 25.7352 8.28324 25.6323C8.27319 25.5979 8.26301 25.563 8.25226 25.5275C9.17796 25.1802 10.1629 24.7132 10.5093 23.6268C10.6449 23.2514 10.6562 22.8449 10.5416 22.463C10.4269 22.0807 10.1916 21.7419 9.86811 21.4931C9.42781 21.1449 8.91348 20.8933 8.36115 20.7561ZM6.83405 22.0886C6.85228 22.0835 6.87064 22.0788 6.88906 22.0745C7.49172 21.9835 8.10831 22.1047 8.6253 22.4156C8.85314 22.5677 8.94647 22.7366 8.96251 22.8992C8.97905 23.0666 8.91563 23.248 8.78823 23.4224C8.54749 23.7518 8.10817 24.0155 7.71133 24.0646C7.42204 23.4251 7.12825 22.7598 6.83405 22.0886Z" fill="#3A3B7B"/>
<path d="M12.0341 19.5856C12.6902 19.2948 13.5029 19.2445 14.1388 19.449C14.299 19.4938 14.4379 19.5906 14.5319 19.723C14.6253 19.8545 14.6684 20.013 14.654 20.1715C14.653 20.2743 14.6267 20.3755 14.5772 20.4668C14.5269 20.5598 14.4539 20.6397 14.3645 20.6999C14.2752 20.76 14.172 20.7987 14.0638 20.8125C13.9556 20.8264 13.8455 20.815 13.7429 20.7793L13.735 20.7766L13.7277 20.7729C13.6752 20.7465 13.6194 20.7267 13.5617 20.7137L13.558 20.713C13.1107 20.5989 12.6887 20.7879 12.5345 21.0201C12.461 21.1308 12.4519 21.2425 12.5131 21.3442C12.5787 21.453 12.7395 21.5752 13.0649 21.6623C13.1544 21.6859 13.2462 21.7086 13.3392 21.7318C13.5966 21.7957 13.864 21.8621 14.1226 21.9542L14.1236 21.9546C15.3166 22.3902 15.7608 23.2925 15.6087 24.1411C15.4583 24.9804 14.728 25.7441 13.6298 25.9243C13.2303 26.0093 12.8144 25.9927 12.4234 25.8763C12.0315 25.7594 11.6782 25.5462 11.3987 25.2577L11.3914 25.2502C11.3032 25.1415 11.2438 25.0139 11.2175 24.8784C11.1933 24.7561 11.2061 24.6298 11.2542 24.5142C11.3021 24.3993 11.383 24.2999 11.4875 24.2275C11.5978 24.1454 11.7308 24.0961 11.87 24.0858C12.0088 24.0756 12.1477 24.1045 12.2695 24.169C12.3912 24.2255 12.5044 24.2974 12.606 24.383L12.6079 24.3846C12.7877 24.5424 13.0051 24.5835 13.2137 24.5454C13.4252 24.5068 13.6242 24.3866 13.7522 24.2272C13.8793 24.0688 13.9303 23.8806 13.8697 23.6979C13.8088 23.5139 13.6255 23.3077 13.2229 23.1354C13.1177 23.0925 13.0085 23.0579 12.895 23.0242C12.8644 23.0151 12.8333 23.0061 12.8018 22.9969C12.7178 22.9725 12.6315 22.9473 12.5468 22.9195C12.4885 22.9004 12.4306 22.8824 12.3733 22.8644C12.2167 22.8155 12.064 22.7678 11.9171 22.7038C11.5972 22.5992 11.3209 22.3986 11.1293 22.1314C10.9368 21.8632 10.84 21.5425 10.8532 21.2171C10.8542 20.4243 11.3745 19.878 12.0341 19.5856Z" fill="#3A3B7B"/>
<path d="M20.3519 19.5012C20.2247 19.4415 20.084 19.4132 19.9426 19.4188C19.8011 19.4244 19.6633 19.4636 19.5417 19.5331C19.4208 19.6021 19.3195 19.6988 19.247 19.8144C19.1805 19.9118 19.1345 20.0207 19.1115 20.1351C19.0886 20.2494 19.0891 20.3668 19.1131 20.4808C19.1368 20.6274 19.1631 20.7699 19.189 20.9104C19.2319 21.1429 19.2737 21.3703 19.3013 21.602L19.3023 21.6079C19.3651 21.9714 19.3979 22.339 19.4009 22.7074L19.4012 22.7126C19.4226 23.1105 19.2814 23.5006 19.0077 23.8001L19.0034 23.8055C18.9144 23.915 18.7953 23.9986 18.6596 24.0469C18.5238 24.0952 18.3768 24.1063 18.2349 24.0789C18.0929 24.0516 17.9617 23.9869 17.8559 23.8921C17.7501 23.7973 17.6738 23.6757 17.6357 23.5417C17.5544 23.2592 17.5073 22.9687 17.4954 22.6759L17.6343 20.5535C17.6363 20.5257 17.6387 20.4973 17.641 20.4686C17.6463 20.4041 17.6517 20.3385 17.654 20.2772C17.6573 20.1871 17.6545 20.0945 17.6326 20.0067C17.6102 19.9171 17.5676 19.8318 17.4921 19.7592C17.4173 19.6873 17.3164 19.6343 17.1893 19.5982C16.9596 19.5343 16.7654 19.5364 16.6035 19.6023C16.4416 19.6682 16.3307 19.7906 16.2521 19.932C16.1742 20.0722 16.1242 20.2382 16.0863 20.4044C16.0582 20.5278 16.0357 20.6573 16.0142 20.7806C16.0068 20.8231 15.9995 20.8648 15.9922 20.9053L15.992 20.9065C15.8772 21.5825 15.8431 22.2689 15.8902 22.9524C15.899 23.3218 15.9792 23.6864 16.1269 24.0276C16.2935 24.4678 16.5953 24.8492 16.9924 25.1215C17.3904 25.3943 17.8652 25.5447 18.3542 25.5526C18.8431 25.5606 19.3231 25.4257 19.7304 25.166C20.1371 24.9067 20.4523 24.535 20.6343 24.1001C20.8889 23.5461 21.0084 22.9437 20.9837 22.3386C20.9688 21.8969 20.9437 21.4518 20.9188 21.009C20.9066 20.7917 20.8944 20.575 20.8835 20.3595C20.8779 20.1435 20.8037 19.9343 20.6707 19.7599C20.5884 19.6496 20.4789 19.5607 20.3519 19.5012Z" fill="#3A3B7B"/>
<path d="M24.8545 22.8291C24.8416 22.8449 24.828 22.8612 24.8138 22.8781C24.7103 22.3052 24.6144 21.7324 24.5184 21.1588C24.4839 20.953 24.4493 20.7463 24.4145 20.5403L24.4105 20.5173L24.3978 20.4974C24.3739 20.46 24.3715 20.4234 24.3715 20.3452V20.3362L24.37 20.3272C24.344 20.1658 24.268 20.0155 24.1517 19.8962C24.0358 19.7771 23.8853 19.6942 23.7197 19.6583C23.5544 19.6191 23.3807 19.6278 23.2204 19.6831C23.0606 19.7383 22.9212 19.8375 22.8198 19.9682C22.7355 20.0686 22.6664 20.1799 22.6146 20.2988C22.4971 20.5549 22.3785 20.8118 22.2596 21.0693L22.2575 21.0737C21.9607 21.7166 21.6619 22.3638 21.3718 23.0161L21.3709 23.0182C21.1928 23.4411 21.0457 23.8868 20.8992 24.3311C20.87 24.4197 20.8407 24.5084 20.8112 24.5968C20.7583 24.737 20.7352 24.8859 20.7431 25.0348C20.7335 25.1681 20.7667 25.301 20.8384 25.4157C20.9115 25.5326 21.021 25.6247 21.1514 25.6788C21.2897 25.737 21.4442 25.7494 21.5907 25.7139C21.7368 25.6786 21.8665 25.5976 21.9595 25.4839C22.0782 25.3437 22.1803 25.1909 22.2636 25.0289C22.5094 24.5464 22.7443 24.058 22.9781 23.5717C23.0686 23.3836 23.1565 23.2151 23.2565 23.0316C23.2634 23.0543 23.2704 23.0763 23.2776 23.0984C23.3824 23.5414 23.5594 23.9657 23.8019 24.3557C23.8478 24.4383 23.9117 24.5105 23.9893 24.5674C24.0678 24.6249 24.1584 24.6653 24.2549 24.6858C24.3513 24.7063 24.4512 24.7064 24.5477 24.6861C24.644 24.6658 24.7349 24.6254 24.8135 24.5681L24.9689 24.4564L26.1758 23.4807L26.1044 23.9173C26.0065 24.5173 25.9093 25.1123 25.806 25.7075C25.7384 25.9713 25.7385 26.2468 25.8063 26.5105C25.8356 26.6589 25.9104 26.7955 26.0211 26.903C26.1327 27.0113 26.2756 27.0849 26.4313 27.1143C26.587 27.1436 26.7484 27.1273 26.8943 27.0676C27.0382 27.0087 27.1605 26.9102 27.2461 26.7848C27.4451 26.5478 27.5689 26.2609 27.6029 25.9583C27.6542 25.5309 27.712 25.0977 27.7699 24.6646C27.8366 24.1654 27.9033 23.6663 27.9596 23.1769L27.9598 23.1754C28.014 22.6396 28.0403 22.1016 28.0384 21.5632C28.0503 21.3931 28.0062 21.2237 27.9121 21.0788C27.8178 20.9335 27.678 20.8205 27.5129 20.7558C27.3411 20.6809 27.1488 20.6608 26.9642 20.6987C26.7809 20.7363 26.6149 20.8291 26.4904 20.9635C26.2678 21.1611 26.059 21.3725 25.8652 21.5965L25.8639 21.598C25.6525 21.8509 25.4424 22.1088 25.2338 22.365C25.1069 22.5207 24.9803 22.6761 24.8545 22.8291Z" fill="#3A3B7B"/>
</g>
<defs>
<clipPath id="clip0_211_2521">
<rect width="32.7153" height="20.186" fill="white" transform="translate(-0.00726318 7.77344)"/>
</clipPath>
</defs>
</svg>
