<svg width="34" height="35" viewBox="0 0 34 35" fill="none" xmlns="http://www.w3.org/2000/svg">
<rect x="0.0923462" y="0.919434" width="33.4113" height="33.4113" rx="5.56856" fill="#F5F7FA"/>
<g clip-path="url(#clip0_211_2514)">
<path fill-rule="evenodd" clip-rule="evenodd" d="M7.12132 10.6375L0.170521 17.5184C1.56081 18.8947 3.149 20.0547 4.88057 20.9621C5.35919 22.219 6.10941 23.3976 7.13122 24.4091C10.9755 28.2148 17.2084 28.2148 21.0526 24.4091C22.0744 23.3976 22.8247 22.219 23.3033 20.9621C25.0348 20.0547 26.623 18.8947 28.0133 17.5184L21.0681 10.6431C21.063 10.6379 21.0578 10.6328 21.0526 10.6277C17.2084 6.82203 10.9755 6.82203 7.13122 10.6277C7.12792 10.6309 7.12462 10.6342 7.12132 10.6375ZM20.3875 22.2036C18.3619 22.8803 16.2356 23.2269 14.0919 23.2269C11.9482 23.2269 9.82194 22.8803 7.79638 22.2036C8.01585 22.4918 8.25815 22.7684 8.52335 23.031C11.5988 26.0755 16.585 26.0755 19.6605 23.031C19.9257 22.7684 20.168 22.4918 20.3875 22.2036ZM8.66612 11.868C9.18838 12.2096 9.7437 12.5018 10.3248 12.7401C11.5191 13.2299 12.7992 13.4819 14.0919 13.4819C15.3847 13.4819 16.6647 13.2299 17.859 12.7401C18.4401 12.5018 18.9954 12.2096 19.5178 11.868C16.4807 9.00724 11.7031 9.00725 8.66612 11.868Z" fill="#3B4158"/>
</g>
<defs>
<clipPath id="clip0_211_2514">
<rect width="27.8428" height="19.4899" fill="white" transform="translate(0.170521 7.77344)"/>
</clipPath>
</defs>
</svg>
