<svg width="34" height="35" viewBox="0 0 34 35" fill="none" xmlns="http://www.w3.org/2000/svg">
<rect x="0.142151" y="0.919434" width="33.4113" height="33.4113" rx="5.56856" fill="#E8F5E9"/>
<g clip-path="url(#clip0_211_2511)">
<path fill-rule="evenodd" clip-rule="evenodd" d="M7.3488 1.05481C11.1931 1.05481 14.3095 4.17122 14.3095 8.0155V1.05481H21.2702C25.1144 1.05481 28.2309 4.17122 28.2309 8.0155C28.2309 11.8598 25.1144 14.9762 21.2702 14.9762C25.1144 14.9762 28.2309 18.0926 28.2309 21.9369C28.2309 23.8457 27.4625 25.5751 26.2182 26.8326L26.1922 26.8589L26.1691 26.8818C24.9113 28.1279 23.1806 28.8976 21.2702 28.8976C19.3728 28.8976 17.6527 28.1384 16.397 26.9072C16.3807 26.8912 16.3644 26.875 16.3482 26.8589C16.333 26.8436 16.3178 26.8283 16.3027 26.8129C15.0699 25.5571 14.3095 23.8358 14.3095 21.9369C14.3095 25.7811 11.1931 28.8976 7.3488 28.8976C3.50452 28.8976 0.388109 25.7811 0.388109 21.9369V14.9762H7.3488C3.50452 14.9762 0.388109 11.8598 0.388109 8.0155C0.388109 4.17122 3.50452 1.05481 7.3488 1.05481ZM12.9174 8.0155C12.9174 11.0909 10.4242 13.5841 7.3488 13.5841V2.44695C10.4242 2.44695 12.9174 4.94007 12.9174 8.0155ZM26.8387 21.9369C26.8387 18.8615 24.3456 16.3683 21.2702 16.3683C18.1947 16.3683 15.7016 18.8615 15.7016 21.9369H26.8387ZM1.78025 16.3683V21.9369C1.78025 25.0123 4.27337 27.5054 7.3488 27.5054C10.4242 27.5054 12.9174 25.0123 12.9174 21.9369V16.3683H1.78025ZM15.7016 13.5841V2.44695H21.2702C24.3456 2.44695 26.8387 4.94007 26.8387 8.0155C26.8387 11.0909 24.3456 13.5841 21.2702 13.5841H15.7016Z" fill="#5417D7"/>
</g>
<defs>
<clipPath id="clip0_211_2511">
<rect width="27.8428" height="27.8428" fill="white" transform="translate(0.388109 1.05481)"/>
</clipPath>
</defs>
</svg>
