<svg width="35" height="35" viewBox="0 0 35 35" fill="none" xmlns="http://www.w3.org/2000/svg">
<rect x="0.942902" y="0.919434" width="33.4113" height="33.4113" rx="5.56856" fill="#F5F7FA"/>
<g clip-path="url(#clip0_211_2537)">
<path d="M27.6981 9.05691C27.6981 9.38128 27.9643 9.64422 28.2927 9.64422H28.8872C29.2156 9.64422 29.4818 9.38128 29.4818 9.05691C29.4818 8.73255 29.2156 8.4696 28.8872 8.4696H28.2927C27.9643 8.4696 27.6981 8.73255 27.6981 9.05691Z" fill="#212326"/>
<path d="M10.4559 27.2635H13.3442L12.5033 26.4329C12.2803 26.2126 11.9779 26.0889 11.6625 26.0889H10.4559C5.85875 26.0889 2.13205 22.4076 2.13205 17.8665C2.13205 13.3255 5.85875 9.64423 10.4559 9.64422H19.9688C24.566 9.64422 28.2927 13.3255 28.2927 17.8665C28.2927 22.4076 24.566 26.0889 19.9688 26.0889H16.4102C15.9371 26.0889 15.4835 25.9032 15.149 25.5728L14.1639 24.5997C13.6064 24.049 12.8502 23.7396 12.0618 23.7396H10.4559C7.1722 23.7396 4.51029 21.1102 4.51029 17.8665C4.51029 14.6229 7.1722 11.9935 10.4559 11.9935H19.9688C23.2525 11.9935 25.9144 14.6229 25.9144 17.8665C25.9144 21.1102 23.2525 23.7396 19.9688 23.7396H17.6839C17.2108 23.7396 16.7571 23.554 16.4226 23.2236L15.4375 22.2505C14.88 21.6998 14.1238 21.3904 13.3354 21.3904H10.4559C8.4857 21.3904 6.88853 19.8127 6.88853 17.8665C6.88853 15.9204 8.4857 14.3427 10.4559 14.3427H19.9688C21.939 14.3427 23.5362 15.9204 23.5362 17.8665C23.5362 19.789 21.9777 21.3519 20.0407 21.3897L20.0404 21.3904H19.1703C18.6972 21.3904 18.2435 21.2048 17.909 20.8744L16.9239 19.9013C16.4664 19.4494 15.8753 19.16 15.2422 19.0707L15.2124 19.0412H10.4559C9.79916 19.0412 9.26676 18.5153 9.26676 17.8665C9.26676 17.2178 9.79916 16.6919 10.4559 16.6919H19.9688C20.6256 16.6919 21.1579 17.2178 21.1579 17.8665C21.1579 18.5153 20.6256 19.0412 19.9688 19.0412H17.5906L18.4314 19.8718C18.6544 20.092 18.9569 20.2158 19.2722 20.2158H19.9688C21.2823 20.2158 22.3471 19.164 22.3471 17.8665C22.3471 16.5691 21.2823 15.5173 19.9688 15.5173H10.4559C9.14243 15.5173 8.07764 16.5691 8.07764 17.8665C8.07764 19.164 9.14243 20.2158 10.4559 20.2158H14.8218C15.2949 20.2158 15.7486 20.4014 16.0831 20.7318L17.0682 21.7049C17.6257 22.2556 18.3818 22.565 19.1703 22.565H20.2661V22.556C22.7546 22.4044 24.7253 20.3628 24.7253 17.8665C24.7253 15.2717 22.5957 13.1681 19.9688 13.1681H10.4559C7.82898 13.1681 5.69941 15.2717 5.69941 17.8665C5.69941 20.4615 7.82898 22.565 10.4559 22.565H13.3354C13.8085 22.565 14.2622 22.7506 14.5967 23.081L15.5818 24.0541C16.1393 24.6049 16.8954 24.9142 17.6839 24.9142H19.9688C23.9092 24.9142 27.1035 21.7589 27.1035 17.8665C27.1035 13.9742 23.9092 10.8188 19.9688 10.8188H10.4559C6.51548 10.8188 3.32117 13.9742 3.32117 17.8665C3.32117 21.7589 6.51548 24.9142 10.4559 24.9142H12.0618C12.5348 24.9142 12.9885 25.0999 13.323 25.4303L14.3082 26.4034C14.8657 26.9541 15.6218 27.2635 16.4102 27.2635H19.9688C25.2227 27.2635 29.4818 23.0563 29.4818 17.8665C29.4818 12.6768 25.2227 8.4696 19.9688 8.4696L10.4559 8.46961C5.20202 8.46961 0.942932 12.6768 0.942932 17.8665C0.942933 23.0563 5.20203 27.2635 10.4559 27.2635Z" fill="#212326"/>
</g>
<defs>
<clipPath id="clip0_211_2537">
<rect width="28.5388" height="18.7939" fill="white" transform="translate(0.942932 8.4696)"/>
</clipPath>
</defs>
</svg>
